<svg t="1565334768333" class="icon" viewBox="0 0 1024 1024" version="1.1" xmlns="http://www.w3.org/2000/svg" p-id="728" width="200" height="200"><path d="M885.76 353.28c2.56 0 5.12-2.56 7.68-2.56 28.16-20.48 46.08-53.76 46.08-87.04 0-35.84-17.92-66.56-46.08-87.04-2.56-2.56-5.12-2.56-7.68-2.56l-307.2-104.96c-48.64-17.92-102.4-17.92-151.04 0l-307.2 104.96c-2.56 0-5.12 2.56-7.68 2.56-28.16 20.48-46.08 53.76-46.08 87.04 0 35.84 17.92 66.56 46.08 87.04 2.56 2.56 5.12 2.56 7.68 2.56l304.64 104.96c25.6 7.68 51.2 12.8 79.36 12.8 25.6 0 53.76-5.12 79.36-12.8l302.08-104.96z m-445.44 53.76l-299.52-102.4c-12.8-10.24-20.48-25.6-20.48-43.52s7.68-33.28 20.48-43.52l302.08-104.96c38.4-12.8 79.36-12.8 117.76 0l302.08 104.96c12.8 10.24 20.48 25.6 20.48 43.52s-7.68 33.28-20.48 43.52l-299.52 102.4c-38.4 12.8-81.92 12.8-122.88 0zM381.44 542.72L87.04 432.64c-7.68-2.56-17.92-2.56-23.04 2.56-7.68 5.12-12.8 12.8-12.8 20.48v291.84c0 48.64 30.72 94.72 76.8 112.64L422.4 972.8c2.56 0 5.12 2.56 10.24 2.56s10.24-2.56 15.36-5.12c7.68-5.12 10.24-12.8 10.24-20.48V655.36c-2.56-48.64-33.28-94.72-76.8-112.64z m23.04 366.08L145.92 808.96c-25.6-10.24-43.52-35.84-43.52-64v-253.44l258.56 99.84c25.6 10.24 43.52 35.84 43.52 61.44v256zM934.4 435.2c-7.68-5.12-15.36-5.12-23.04-2.56L614.4 542.72c-46.08 17.92-76.8 61.44-76.8 110.08v168.96c0 15.36 12.8 25.6 25.6 25.6 15.36 0 25.6-12.8 25.6-25.6v-168.96c0-28.16 17.92-51.2 43.52-61.44l258.56-99.84v253.44c0 28.16-17.92 53.76-43.52 64L555.52 921.6c-12.8 5.12-20.48 20.48-15.36 33.28 5.12 10.24 12.8 17.92 23.04 17.92 2.56 0 5.12 0 10.24-2.56l294.4-112.64c46.08-17.92 76.8-61.44 76.8-112.64V455.68c0-7.68-5.12-15.36-10.24-20.48z" fill="#1296db" p-id="729"></path><path d="M512 143.36l-240.64 79.36c-7.68 2.56-10.24 10.24-7.68 15.36 2.56 5.12 7.68 10.24 12.8 10.24h5.12l240.64-79.36c7.68-2.56 10.24-10.24 7.68-15.36-5.12-10.24-12.8-12.8-17.92-10.24zM230.4 235.52l-25.6 7.68c-7.68 5.12-12.8 12.8-10.24 17.92 2.56 5.12 7.68 10.24 12.8 10.24h5.12l25.6-7.68c7.68-2.56 10.24-10.24 7.68-15.36-2.56-10.24-10.24-15.36-15.36-12.8z" fill="#1296db" p-id="730"></path></svg>
